<?xml version="1.0" encoding="utf-8"?>
<!-- Generator: Adobe Illustrator 16.0.0, SVG Export Plug-In . SVG Version: 6.00 Build 0)  -->
<!DOCTYPE svg PUBLIC "-//W3C//DTD SVG 1.1//EN" "http://www.w3.org/Graphics/SVG/1.1/DTD/svg11.dtd">
<svg version="1.1" id="Layer_1" xmlns="http://www.w3.org/2000/svg" xmlns:xlink="http://www.w3.org/1999/xlink" x="0px" y="0px"
	 width="450px" height="450px" viewBox="0 0 450 450" enable-background="new 0 0 450 450" xml:space="preserve">
<g id="Layer_2" display="none">
	<rect y="50.652" display="inline" fill="#E81E25" stroke="#000000" stroke-miterlimit="10" width="450" height="348.697"/>
</g>
<g id="Layer_1_1_">
	<g>
		<rect x="304.633" y="350.336" fill="#143359" width="84.256" height="1.961"/>
		<rect x="74.054" y="350.336" fill="#143359" width="73.172" height="1.961"/>
		<rect x="304.633" y="330.096" fill="#143359" width="56.824" height="1.96"/>
		<rect x="106.072" y="330.096" fill="#143359" width="40.005" height="1.96"/>
		<path fill="#143359" d="M147.226,313.11h-49.56c-5.943,0-10.776-4.835-10.776-10.777V279.79c0-4.863-3.955-8.818-8.818-8.818
			H56.002v-1.959h22.068c5.944,0,10.777,4.835,10.777,10.776v22.543c0,4.863,3.954,8.818,8.817,8.818h49.56L147.226,313.11
			L147.226,313.11z"/>
		<path fill="#143359" d="M392.154,309.188h-87.521v-1.961h87.521c4.863,0,8.819-3.223,8.819-7.185v-8.164h1.958v8.164
			C402.932,305.086,398.098,309.188,392.154,309.188z"/>
		<path fill="#143359" d="M147.226,294.334h-29.392c-5.944,0-10.778-4.834-10.778-10.776V211.71c0-4.861-3.955-8.817-8.817-8.817
			H71.459v-1.96h26.779c5.943,0,10.776,4.834,10.776,10.776v71.848c0,4.862,3.956,8.817,8.819,8.817h29.392V294.334z"/>
		<path fill="#143359" d="M326.84,293.518h-22.207v-1.959h22.207c4.862,0,8.817-3.955,8.817-8.818v-53.559h1.959v53.559
			C337.615,288.684,332.78,293.518,326.84,293.518z"/>
		<path fill="#143359" d="M267.078,288.943h-1.961V181.172c0-5.943,4.835-10.776,10.777-10.776h31.35
			c4.863,0,8.818-3.956,8.818-8.818V143.29h1.961v18.288c0,5.943-4.834,10.778-10.777,10.778h-31.35
			c-4.864,0-8.818,3.954-8.818,8.817V288.943z"/>
		<rect x="244.223" y="193.9" fill="#143359" width="1.957" height="95.042"/>
		<rect x="223.646" y="125.653" fill="#143359" width="1.96" height="163.288"/>
		<rect x="204.053" y="149.821" fill="#143359" width="1.959" height="139.122"/>
		<path fill="#143359" d="M184.782,288.943h-1.96V175.294c0-4.861-3.955-8.817-8.817-8.817h-47.681
			c-5.943,0-10.775-4.835-10.775-10.776v-13.063h1.959V155.7c0,4.862,3.955,8.817,8.816,8.817h47.681
			c5.943,0,10.777,4.835,10.777,10.776V288.943z"/>
		<path fill="#143359" d="M148.205,288.943h-1.959V202.79c0-4.861-3.955-8.817-8.817-8.817h-30.102
			c-5.942,0-10.775-4.835-10.775-10.777v-9.851h1.958v9.851c0,4.863,3.955,8.818,8.818,8.818h30.102
			c5.943,0,10.776,4.834,10.776,10.776V288.943z"/>
		<path fill="#143359" d="M302.346,287.633h-1.959v-62.702c0-5.942,4.835-10.776,10.776-10.776h63.356
			c4.862,0,8.818-3.955,8.818-8.818v-12.409h1.959v12.409c0,5.943-4.834,10.777-10.776,10.777h-63.356
			c-4.863,0-8.818,3.956-8.818,8.817V287.633z"/>
	</g>
	<g>
		<path fill="#FFFFFF" d="M307.176,379.697c0,1.414-1.219,2.562-2.725,2.562h-159.65c-1.504,0-2.725-1.147-2.725-2.562V276.164
			c0-1.416,1.221-2.563,2.725-2.563h159.65c1.508,0,2.727,1.146,2.727,2.563v103.533H307.176z"/>
		<path fill="none" stroke="#143359" stroke-width="2.8082" stroke-linejoin="round" stroke-miterlimit="10" d="M307.176,379.697
			c0,1.414-1.219,2.562-2.725,2.562h-159.65c-1.504,0-2.725-1.147-2.725-2.562V276.164c0-1.416,1.221-2.563,2.725-2.563H246.18
			h58.271c1.508,0,2.727,1.146,2.727,2.563v103.533H307.176z"/>
		<path fill="#74C1E3" d="M299.439,373.43c0,1.244-1.106,2.251-2.469,2.251H152.285c-1.363,0-2.469-1.007-2.469-2.251v-90.997
			c0-1.245,1.106-2.253,2.469-2.253h144.686c1.362,0,2.469,1.008,2.469,2.253V373.43z"/>
		<path fill="none" stroke="#143359" stroke-width="2.8082" stroke-linejoin="round" stroke-miterlimit="10" d="M299.439,373.43
			c0,1.244-1.106,2.251-2.469,2.251H152.285c-1.363,0-2.469-1.007-2.469-2.251v-90.997c0-1.245,1.106-2.253,2.469-2.253h144.686
			c1.362,0,2.469,1.008,2.469,2.253V373.43z"/>
		<path fill="#FFFFFF" d="M128.001,387.629c0,0,0.725,7.986,7.536,7.986h178.176c6.813,0,7.536-7.986,7.536-7.986H128.001z"/>
		<path fill="none" stroke="#143359" stroke-width="2.8082" stroke-linejoin="round" stroke-miterlimit="10" d="M128.001,387.629
			c0,0,0.725,7.986,7.536,7.986h178.176c6.813,0,7.536-7.986,7.536-7.986H128.001z"/>
	</g>
	<g>
		<circle fill="#FFFFFF" cx="46.214" cy="346.893" r="40.778"/>
		<circle fill="none" stroke="#143359" stroke-width="2.8082" stroke-miterlimit="10" cx="46.214" cy="346.893" r="40.778"/>
		<circle fill="#FCFDF9" cx="40.625" cy="342.287" r="4.499"/>
	</g>
	<g>
		<circle fill="#F7B948" cx="46.216" cy="201.42" r="36.506"/>
		<circle fill="none" stroke="#143359" stroke-width="2.8082" stroke-miterlimit="10" cx="46.216" cy="201.42" r="36.506"/>
	</g>
	<g>
		<circle fill="#FFFFFF" cx="116.856" cy="103.814" r="48.333"/>
		<circle fill="none" stroke="#143359" stroke-width="2.8082" stroke-miterlimit="10" cx="116.856" cy="103.814" r="48.333"/>
	</g>
	<g>
		<path fill="#F6B750" d="M255.326,100.505c0,9.297-4.136,17.635-10.66,23.259c-1.52,1.303-3.154,2.469-4.898,3.459
			c-3.811,2.155-8.112,3.526-12.697,3.889c-0.805,0.068-1.625,0.097-2.45,0.097c-5.506,0-10.658-1.44-15.136-3.978
			c-9.288-5.28-15.558-15.264-15.558-26.727c0-16.95,13.746-30.695,30.695-30.695C241.571,69.81,255.326,83.555,255.326,100.505z"/>
		<path fill="none" stroke="#143359" stroke-width="2.8082" stroke-miterlimit="10" d="M255.326,100.505
			c0,9.297-4.136,17.635-10.66,23.259c-1.52,1.303-3.154,2.469-4.898,3.459c-3.811,2.155-8.112,3.526-12.697,3.889
			c-0.805,0.068-1.625,0.097-2.45,0.097c-5.506,0-10.658-1.44-15.136-3.978c-9.288-5.28-15.558-15.264-15.558-26.727
			c0-16.95,13.746-30.695,30.695-30.695C241.571,69.81,255.326,83.555,255.326,100.505z"/>
	</g>
	<g>
		<circle fill="#FFFFFF" cx="316.067" cy="102.468" r="48.333"/>
		<circle fill="none" stroke="#143359" stroke-width="2.8082" stroke-miterlimit="10" cx="316.067" cy="102.468" r="48.333"/>
		<g>
			<path fill="#75C1E3" d="M344.523,102.465c0,15.722-12.746,28.459-28.459,28.459c-15.715,0-28.453-12.737-28.453-28.459
				c0-7.949,3.258-15.13,8.508-20.296c5.133-5.048,12.179-8.157,19.945-8.157c7.771,0,14.818,3.117,19.95,8.166
				C341.262,87.344,344.523,94.524,344.523,102.465z"/>
			<path opacity="0.5" fill="#70BAE1" enable-background="new    " d="M344.526,102.465c0,15.724-12.745,28.46-28.461,28.46
				c-6.427,0-12.354-2.135-17.116-5.73c3.224,1.283,6.742,1.978,10.425,1.978c15.705,0,28.45-12.746,28.45-28.461
				c0-7.945-3.252-15.127-8.503-20.291c-0.892-0.871-1.843-1.694-2.842-2.439c3.596,1.412,6.827,3.537,9.532,6.192
				C341.264,87.347,344.526,94.529,344.526,102.465z"/>
			<path fill="none" stroke="#143359" stroke-width="1.8722" stroke-miterlimit="10" d="M344.523,102.465
				c0,15.722-12.746,28.459-28.459,28.459c-15.715,0-28.453-12.737-28.453-28.459c0-7.949,3.258-15.13,8.508-20.296
				c5.133-5.048,12.179-8.157,19.945-8.157c7.771,0,14.818,3.117,19.95,8.166C341.262,87.344,344.523,94.524,344.523,102.465z
				 M316.064,74.01c-9.927,0-17.973,12.632-17.973,28.213c0,15.583,8.046,28.213,17.973,28.213V74.01z M316.064,130.438
				c9.924,0,17.971-12.632,17.971-28.213s-8.047-28.213-17.971-28.213 M296.118,82.169c5.249,4.84,12.253,7.799,19.944,7.799
				c7.699,0,14.701-2.959,19.951-7.79 M336.014,123.109c-5.25-4.832-12.252-7.79-19.951-7.79c-7.691,0-14.695,2.958-19.944,7.798
				 M287.611,102.465h56.912"/>
		</g>
	</g>
	<g>
		<circle fill="#F7B948" cx="384.25" cy="166.483" r="26.872"/>
		<circle fill="none" stroke="#143359" stroke-width="2.8082" stroke-miterlimit="10" cx="384.25" cy="166.483" r="26.872"/>
		<g>
			<g>
				<path fill="#153258" d="M386.217,172.838c0-0.097-0.035-0.195-0.104-0.292c-0.547-0.655-0.986-1.217-1.317-1.686
					c0.204-0.4,0.361-0.772,0.467-1.113l2.271-0.352c0.089-0.009,0.167-0.061,0.235-0.153c0.067-0.093,0.103-0.188,0.103-0.286
					v-2.711c0-0.107-0.034-0.203-0.103-0.286c-0.068-0.083-0.152-0.134-0.248-0.154l-2.228-0.337
					c-0.108-0.333-0.274-0.733-0.498-1.201c0.146-0.215,0.366-0.509,0.659-0.879c0.292-0.371,0.498-0.635,0.615-0.792
					c0.066-0.098,0.102-0.19,0.102-0.278c0-0.265-0.702-1.045-2.109-2.345c-0.098-0.078-0.201-0.118-0.309-0.118
					c-0.116,0-0.213,0.034-0.292,0.103l-1.729,1.304c-0.401-0.205-0.769-0.356-1.1-0.454l-0.336-2.243
					c-0.009-0.097-0.059-0.183-0.146-0.256c-0.089-0.073-0.188-0.11-0.293-0.11h-2.727c-0.225,0-0.372,0.116-0.439,0.352
					c-0.115,0.449-0.229,1.202-0.336,2.256c-0.421,0.136-0.796,0.293-1.129,0.468l-1.685-1.318c-0.097-0.068-0.2-0.103-0.308-0.103
					c-0.186,0-0.571,0.288-1.158,0.865c-0.586,0.577-0.986,1.011-1.2,1.304c-0.068,0.078-0.104,0.176-0.104,0.293
					c0,0.088,0.034,0.186,0.104,0.293c0.547,0.654,0.986,1.216,1.317,1.685c-0.204,0.401-0.361,0.772-0.468,1.113l-2.271,0.352
					c-0.09,0.009-0.167,0.061-0.236,0.153c-0.067,0.093-0.103,0.188-0.103,0.286v2.71c0,0.108,0.034,0.203,0.103,0.286
					c0.068,0.083,0.152,0.13,0.25,0.139l2.227,0.352c0.117,0.371,0.289,0.772,0.513,1.202c-0.157,0.215-0.386,0.513-0.688,0.894
					c-0.305,0.381-0.504,0.64-0.602,0.776c-0.067,0.098-0.104,0.191-0.104,0.278c0,0.265,0.705,1.045,2.111,2.345
					c0.098,0.078,0.2,0.117,0.308,0.117c0.127,0,0.226-0.034,0.292-0.103l1.729-1.304c0.401,0.205,0.768,0.356,1.099,0.454
					l0.337,2.243c0.01,0.098,0.061,0.182,0.147,0.256c0.087,0.073,0.186,0.11,0.292,0.11h2.726c0.226,0,0.371-0.117,0.439-0.352
					c0.117-0.459,0.23-1.217,0.337-2.271c0.391-0.116,0.767-0.268,1.129-0.454l1.684,1.318c0.099,0.068,0.201,0.102,0.308,0.102
					c0.187,0,0.569-0.29,1.15-0.872c0.581-0.581,0.984-1.019,1.21-1.311C386.182,173.049,386.217,172.957,386.217,172.838z
					 M381.146,170.232c-0.732,0.732-1.616,1.098-2.652,1.098c-1.033,0-1.919-0.367-2.65-1.098c-0.732-0.734-1.098-1.617-1.098-2.652
					c0-1.035,0.366-1.919,1.098-2.652c0.732-0.734,1.617-1.098,2.65-1.098c1.037,0,1.921,0.366,2.652,1.098
					c0.734,0.732,1.099,1.617,1.099,2.652C382.245,168.616,381.879,169.499,381.146,170.232z"/>
				<path fill="#153258" d="M395.064,173.602c-0.125-0.284-0.272-0.538-0.439-0.762c0.5-1.104,0.748-1.778,0.748-2.021
					c0-0.04-0.021-0.073-0.06-0.103c-1.172-0.684-1.778-1.025-1.816-1.025l-0.087,0.029c-0.401,0.401-0.852,0.948-1.35,1.641
					c-0.195-0.019-0.341-0.029-0.439-0.029c-0.097,0-0.244,0.011-0.439,0.029c-0.135-0.205-0.39-0.534-0.761-0.988
					c-0.371-0.453-0.597-0.682-0.674-0.682c-0.021,0-0.167,0.078-0.44,0.235c-0.273,0.156-0.561,0.322-0.865,0.498
					c-0.303,0.176-0.473,0.273-0.512,0.293c-0.039,0.029-0.059,0.064-0.059,0.103c0,0.244,0.248,0.918,0.746,2.022
					c-0.164,0.224-0.313,0.479-0.439,0.761c-1.455,0.146-2.184,0.297-2.184,0.454v2.051c0,0.156,0.729,0.307,2.184,0.453
					c0.117,0.265,0.264,0.518,0.439,0.762c-0.498,1.104-0.746,1.778-0.746,2.022c0,0.04,0.02,0.074,0.059,0.104
					c1.191,0.693,1.798,1.04,1.817,1.04c0.077,0,0.303-0.229,0.674-0.688c0.371-0.46,0.625-0.792,0.761-0.996
					c0.197,0.019,0.343,0.029,0.439,0.029c0.099,0,0.244-0.01,0.439-0.029c0.137,0.205,0.392,0.536,0.763,0.996
					c0.371,0.458,0.597,0.688,0.674,0.688c0.021,0,0.625-0.347,1.816-1.04c0.039-0.03,0.06-0.064,0.06-0.104
					c0-0.244-0.248-0.918-0.748-2.022c0.176-0.244,0.324-0.498,0.439-0.762c1.456-0.146,2.184-0.297,2.184-0.453v-2.051
					C397.248,173.899,396.521,173.748,395.064,173.602z M392.948,176.407c-0.366,0.366-0.809,0.549-1.325,0.549
					c-0.518,0-0.959-0.183-1.326-0.549c-0.367-0.367-0.55-0.808-0.55-1.326c0-0.508,0.186-0.948,0.557-1.318
					c0.371-0.371,0.81-0.557,1.317-0.557s0.948,0.186,1.319,0.557c0.37,0.37,0.556,0.811,0.556,1.318
					C393.498,175.599,393.314,176.041,392.948,176.407z"/>
				<path fill="#153258" d="M395.064,158.598c-0.125-0.284-0.272-0.537-0.439-0.762c0.5-1.104,0.748-1.776,0.748-2.022
					c0-0.038-0.021-0.073-0.06-0.102c-1.172-0.684-1.778-1.025-1.816-1.025l-0.087,0.029c-0.401,0.401-0.852,0.948-1.35,1.641
					c-0.195-0.019-0.341-0.029-0.439-0.029c-0.097,0-0.244,0.01-0.439,0.029c-0.135-0.205-0.39-0.534-0.761-0.989
					c-0.371-0.454-0.597-0.681-0.674-0.681c-0.021,0-0.167,0.078-0.44,0.233c-0.273,0.157-0.561,0.323-0.865,0.499
					c-0.304,0.176-0.473,0.273-0.512,0.292c-0.039,0.03-0.059,0.064-0.059,0.102c0,0.244,0.248,0.918,0.746,2.022
					c-0.164,0.225-0.313,0.479-0.439,0.761c-1.455,0.146-2.184,0.298-2.184,0.453v2.052c0,0.156,0.729,0.308,2.184,0.453
					c0.117,0.265,0.264,0.519,0.439,0.763c-0.498,1.104-0.746,1.777-0.746,2.022c0,0.038,0.02,0.072,0.059,0.102
					c1.191,0.693,1.798,1.04,1.817,1.04c0.077,0,0.303-0.229,0.674-0.688c0.371-0.46,0.625-0.792,0.761-0.996
					c0.197,0.019,0.343,0.03,0.439,0.03c0.099,0,0.244-0.011,0.439-0.03c0.137,0.205,0.392,0.536,0.763,0.996
					c0.371,0.459,0.597,0.688,0.674,0.688c0.021,0,0.625-0.346,1.816-1.04c0.039-0.03,0.06-0.064,0.06-0.102
					c0-0.245-0.248-0.918-0.748-2.022c0.176-0.244,0.324-0.498,0.439-0.763c1.456-0.146,2.184-0.297,2.184-0.453v-2.052
					C397.248,158.896,396.521,158.745,395.064,158.598z M392.948,161.404c-0.366,0.366-0.809,0.549-1.325,0.549
					c-0.518,0-0.959-0.184-1.326-0.549c-0.367-0.367-0.55-0.808-0.55-1.327c0-0.508,0.186-0.948,0.557-1.319s0.81-0.557,1.317-0.557
					s0.948,0.187,1.319,0.557c0.37,0.371,0.556,0.811,0.556,1.319C393.498,160.596,393.314,161.038,392.948,161.404z"/>
			</g>
		</g>
	</g>
	<g>
		<circle fill="#F7B948" cx="410.89" cy="355.234" r="28.738"/>
		<circle fill="none" stroke="#143359" stroke-width="2.8082" stroke-miterlimit="10" cx="410.89" cy="355.234" r="28.738"/>
	</g>
	<g>
		<circle fill="#FFFFFF" cx="403.262" cy="256.286" r="43.435"/>
		<circle fill="none" stroke="#143359" stroke-width="2.8082" stroke-miterlimit="10" cx="403.262" cy="256.286" r="43.435"/>
		<g>
			<path fill="#FFFFFF" d="M384.975,253.184c-0.69,0-1.309-0.489-1.442-1.194c-0.03-0.161-0.73-3.983,1.347-6.562
				c1.134-1.405,2.801-2.146,4.957-2.203c0.014,0,0.026,0,0.04,0c0.792,0,1.446,0.633,1.468,1.432
				c0.021,0.812-0.619,1.484-1.431,1.506c-1.272,0.033-2.171,0.397-2.747,1.111c-1.016,1.264-0.875,3.487-0.746,4.166
				c0.152,0.799-0.371,1.567-1.17,1.72C385.157,253.176,385.064,253.184,384.975,253.184z"/>
		</g>
	</g>
	<g>
		<circle fill="#143359" cx="55.051" cy="269.757" r="4.245"/>
		<circle fill="#143359" cx="97.18" cy="171.783" r="4.245"/>
		<circle fill="#143359" cx="205.032" cy="148.188" r="4.245"/>
		<circle fill="#143359" cx="245.201" cy="189.826" r="4.245"/>
		<circle fill="#143359" cx="336.806" cy="229.017" r="4.247"/>
		<circle fill="#143359" cx="361.788" cy="330.909" r="4.245"/>
		<circle fill="#143359" cx="106.732" cy="331.073" r="4.246"/>
	</g>
	<path fill="#3A3F51" d="M128.613,371.566v-4.104h-1.795c-0.198-0.779-0.507-1.516-0.91-2.191l1.27-1.27l-2.901-2.9l-1.27,1.268
		c-0.674-0.4-1.41-0.71-2.191-0.909v-1.795h-4.102v1.795c-0.782,0.199-1.518,0.509-2.193,0.909l-1.269-1.268l-2.903,2.9l1.27,1.27
		c-0.401,0.676-0.71,1.411-0.91,2.191h-1.793v4.104h1.793c0.2,0.781,0.509,1.518,0.91,2.191l-1.27,1.271l2.903,2.902l1.269-1.269
		c0.675,0.4,1.411,0.71,2.193,0.91v1.794h4.102v-1.794c0.782-0.2,1.518-0.51,2.191-0.91l1.27,1.269l2.901-2.902l-1.27-1.269
		c0.402-0.676,0.711-1.411,0.91-2.193H128.613z M118.764,374.543c-2.775,0-5.028-2.251-5.028-5.028c0-2.776,2.252-5.027,5.028-5.027
		c2.777,0,5.028,2.251,5.028,5.027C123.792,372.292,121.541,374.543,118.764,374.543z"/>
	<path fill="#F6B750" d="M348.915,188.329v-3.862h-1.687c-0.189-0.733-0.479-1.427-0.858-2.063l1.196-1.194l-2.732-2.73
		l-1.195,1.195c-0.635-0.379-1.327-0.669-2.064-0.856v-1.689h-3.859v1.689c-0.735,0.187-1.43,0.478-2.064,0.856l-1.193-1.195
		l-2.732,2.73l1.196,1.194c-0.38,0.637-0.671,1.33-0.856,2.063h-1.689v3.862h1.689c0.186,0.735,0.477,1.428,0.856,2.063
		l-1.196,1.196l2.732,2.731l1.193-1.195c0.635,0.377,1.328,0.67,2.064,0.855v1.689h3.859v-1.689c0.736-0.186,1.43-0.478,2.064-0.855
		l1.195,1.195l2.732-2.731l-1.196-1.195c0.38-0.634,0.669-1.328,0.858-2.063H348.915z M339.646,191.13
		c-2.613,0-4.732-2.119-4.732-4.732c0-2.611,2.117-4.73,4.732-4.73s4.732,2.119,4.732,4.73
		C344.379,189.011,342.26,191.13,339.646,191.13z"/>
	<path fill="#143359" d="M165.871,224.761v-1.524h-0.667c-0.074-0.289-0.188-0.562-0.337-0.812l0.472-0.471l-1.077-1.077
		l-0.471,0.473c-0.25-0.149-0.524-0.265-0.812-0.338v-0.667h-1.524v0.667c-0.289,0.074-0.562,0.189-0.813,0.338l-0.471-0.473
		l-1.077,1.077l0.474,0.471c-0.15,0.25-0.266,0.523-0.339,0.812h-0.664v1.524h0.664c0.074,0.289,0.19,0.563,0.339,0.813
		l-0.474,0.471l1.077,1.076l0.471-0.469c0.25,0.148,0.523,0.262,0.813,0.336v0.666h1.524v-0.666
		c0.288-0.074,0.562-0.188,0.812-0.336l0.471,0.469l1.077-1.076l-0.472-0.471c0.149-0.25,0.265-0.524,0.337-0.813H165.871z
		 M162.215,225.865c-1.029,0-1.864-0.834-1.864-1.864c0-1.029,0.835-1.865,1.864-1.865c1.03,0,1.866,0.836,1.866,1.865
		C164.082,225.03,163.246,225.865,162.215,225.865z"/>
	<path fill="#F6B750" d="M367.667,365.69v-2.837h-1.237c-0.139-0.538-0.352-1.047-0.632-1.517l0.878-0.875l-2.006-2.007l-0.878,0.88
		c-0.465-0.281-0.975-0.494-1.513-0.631v-1.241h-2.836v1.241c-0.541,0.137-1.049,0.35-1.517,0.631l-0.876-0.88l-2.006,2.007
		l0.879,0.875c-0.279,0.469-0.492,0.979-0.63,1.517h-1.239v2.837h1.239c0.138,0.539,0.351,1.047,0.63,1.514l-0.879,0.878
		l2.006,2.006l0.876-0.879c0.468,0.278,0.976,0.493,1.517,0.629v1.242h2.836v-1.242c0.538-0.136,1.048-0.351,1.513-0.629
		l0.878,0.879l2.006-2.006l-0.878-0.877c0.28-0.467,0.493-0.976,0.632-1.515H367.667L367.667,365.69z M360.86,367.746
		c-1.919,0-3.476-1.558-3.476-3.477c0-1.917,1.557-3.477,3.476-3.477s3.478,1.56,3.478,3.477
		C364.338,366.188,362.779,367.746,360.86,367.746z"/>
	<path fill="#143359" d="M181.395,149.04v-3.288h-1.438c-0.159-0.625-0.406-1.216-0.729-1.756l1.017-1.016l-2.324-2.325
		l-1.019,1.018c-0.54-0.322-1.129-0.57-1.755-0.729v-1.438h-3.288v1.438c-0.625,0.158-1.215,0.405-1.755,0.729l-1.018-1.018
		l-2.325,2.325l1.018,1.016c-0.322,0.542-0.569,1.131-0.729,1.756h-1.438v3.288h1.438c0.158,0.626,0.406,1.216,0.729,1.755
		l-1.018,1.017l2.325,2.325l1.018-1.016c0.54,0.322,1.13,0.569,1.755,0.728v1.438h3.288v-1.438c0.626-0.159,1.216-0.406,1.755-0.728
		l1.019,1.016l2.324-2.325l-1.017-1.017c0.322-0.54,0.569-1.13,0.729-1.755H181.395z M173.506,151.423
		c-2.224,0-4.027-1.802-4.027-4.027c0-2.223,1.803-4.027,4.027-4.027c2.224,0,4.026,1.803,4.026,4.027
		C177.532,149.621,175.729,151.423,173.506,151.423z"/>
	<path fill="#143359" d="M292.29,234.273v-2.882h-1.261c-0.14-0.548-0.357-1.067-0.641-1.54l0.894-0.893l-2.04-2.037l-0.894,0.893
		c-0.47-0.284-0.989-0.5-1.536-0.641v-1.262h-2.885v1.262c-0.549,0.141-1.065,0.356-1.539,0.641l-0.891-0.893l-2.041,2.037
		l0.895,0.893c-0.283,0.475-0.5,0.993-0.641,1.54h-1.262v2.882h1.262c0.141,0.549,0.357,1.066,0.641,1.539l-0.895,0.895l2.041,2.037
		l0.891-0.892c0.474,0.282,0.992,0.499,1.539,0.64v1.261h2.885v-1.261c0.548-0.141,1.066-0.357,1.536-0.64l0.894,0.892l2.04-2.037
		l-0.894-0.895c0.283-0.473,0.501-0.991,0.641-1.539H292.29z M285.369,236.364c-1.949,0-3.533-1.581-3.533-3.533
		c0-1.948,1.583-3.53,3.533-3.53c1.951,0,3.533,1.581,3.533,3.53C288.902,234.783,287.32,236.364,285.369,236.364z"/>
	<path fill="#143359" d="M35.581,293.567v-2.715h-1.186c-0.131-0.515-0.337-1.003-0.603-1.449l0.841-0.839l-1.92-1.92l-0.84,0.84
		c-0.444-0.268-0.932-0.471-1.449-0.602v-1.188h-2.715v1.188c-0.517,0.131-1.003,0.334-1.449,0.602l-0.84-0.84l-1.921,1.92
		l0.841,0.839c-0.265,0.448-0.471,0.935-0.601,1.449h-1.187v2.715h1.187c0.131,0.517,0.336,1.001,0.601,1.449l-0.841,0.841
		l1.921,1.918l0.84-0.838c0.445,0.266,0.932,0.471,1.449,0.6v1.188h2.715v-1.188c0.518-0.127,1.004-0.334,1.449-0.6l0.84,0.838
		l1.92-1.918l-0.841-0.841c0.266-0.448,0.473-0.933,0.603-1.449H35.581z M29.066,295.537c-1.836,0-3.326-1.49-3.326-3.329
		c0-1.835,1.49-3.325,3.326-3.325c1.836,0,3.326,1.49,3.326,3.325C32.393,294.047,30.902,295.537,29.066,295.537z"/>
	<path fill="#3A3F51" d="M264.014,142.863c0-2.849-2.09-5.205-4.818-5.636c-0.277-3.69-3.354-6.601-7.115-6.601
		c-3.752,0-6.824,2.897-7.111,6.577c-0.246-0.033-0.49-0.054-0.744-0.054c-3.154,0-5.711,2.559-5.711,5.712
		c0,3.155,2.557,5.713,5.711,5.713c0.039,0,0.077-0.005,0.115-0.006v0.006h14.191v-0.012
		C261.579,148.443,264.014,145.941,264.014,142.863z"/>
	<path fill="#3A3F51" d="M71.825,250.598c0-2.436,1.786-4.449,4.118-4.815c0.238-3.153,2.864-5.64,6.078-5.64
		c3.207,0,5.831,2.475,6.078,5.62c0.209-0.026,0.417-0.046,0.635-0.046c2.696,0,4.882,2.184,4.882,4.881
		c0,2.695-2.185,4.881-4.882,4.881c-0.033,0-0.066-0.004-0.098-0.004v0.004H76.511v-0.01
		C73.908,255.364,71.825,253.227,71.825,250.598z"/>
	<path fill="#3A3F51" d="M361.629,296.399c0-1.749-1.281-3.191-2.957-3.456c-0.168-2.263-2.055-4.049-4.361-4.049
		c-2.3,0-4.184,1.777-4.361,4.034c-0.148-0.021-0.301-0.033-0.455-0.033c-1.934,0-3.504,1.569-3.504,3.504s1.57,3.502,3.504,3.502
		c0.022,0,0.046-0.003,0.069-0.003v0.003h8.702v-0.006C360.135,299.819,361.629,298.285,361.629,296.399z"/>
	<path fill="#F7B948" d="M55.097,153.343c0-2.021,1.481-3.689,3.416-3.995c0.196-2.617,2.377-4.679,5.043-4.679
		c2.662,0,4.839,2.054,5.042,4.663c0.173-0.022,0.348-0.038,0.527-0.038c2.236,0,4.049,1.812,4.049,4.048
		c0,2.237-1.813,4.05-4.049,4.05c-0.026,0-0.053-0.002-0.081-0.003v0.003H58.983v-0.008
		C56.825,157.299,55.097,155.525,55.097,153.343z"/>
	<g>
		<g>
			<path fill="#3A3F51" d="M419.129,318.085c-1.846,0-3.348-1.503-3.348-3.349s1.501-3.347,3.348-3.347
				c1.845,0,3.348,1.5,3.348,3.347C422.476,316.582,420.974,318.085,419.129,318.085z M419.129,312.317
				c-1.335,0-2.42,1.085-2.42,2.42c0,1.334,1.085,2.421,2.42,2.421c1.334,0,2.421-1.087,2.421-2.421
				C421.549,313.401,420.463,312.317,419.129,312.317z"/>
		</g>
		<path fill="#3A3F51" d="M82.89,151.45h-2.325v-2.325c0-0.351-0.285-0.633-0.634-0.633c-0.35,0-0.635,0.284-0.635,0.633v2.325
			h-2.324c-0.35,0-0.633,0.284-0.633,0.633c0,0.351,0.284,0.633,0.633,0.633h2.324v2.325c0,0.351,0.285,0.633,0.635,0.633
			c0.351,0,0.634-0.284,0.634-0.633v-2.325h2.325c0.351,0,0.633-0.283,0.633-0.633C83.523,151.733,83.24,151.45,82.89,151.45z"/>
		<g>
			<path fill="#3A3F51" d="M165.513,198.228c-2.927,0-5.309-2.38-5.309-5.307c0-2.925,2.38-5.307,5.309-5.307
				c2.925,0,5.307,2.382,5.307,5.307C170.82,195.848,168.438,198.228,165.513,198.228z M165.513,189.083
				c-2.116,0-3.838,1.722-3.838,3.838c0,2.117,1.722,3.838,3.838,3.838s3.836-1.721,3.836-3.838
				C169.351,190.807,167.628,189.083,165.513,189.083z"/>
		</g>
		<g>
			<path fill="#3A3F51" d="M282.431,192.312c-2.206,0-4.001-1.794-4.001-4c0-2.206,1.795-4.001,4.001-4.001
				c2.204,0,3.999,1.795,3.999,4.001C286.43,190.518,284.636,192.312,282.431,192.312z M282.431,185.418
				c-1.597,0-2.895,1.299-2.895,2.893c0,1.595,1.298,2.892,2.895,2.892c1.594,0,2.892-1.298,2.892-2.892
				S284.025,185.418,282.431,185.418z"/>
		</g>
		<g>
			<path fill="#3A3F51" d="M123.726,258.652c-1.485,0-2.695-1.207-2.695-2.691c0-1.486,1.209-2.696,2.695-2.696
				s2.693,1.21,2.693,2.696C126.419,257.445,125.21,258.652,123.726,258.652z M123.726,254.009c-1.074,0-1.948,0.874-1.948,1.95
				c0,1.073,0.875,1.946,1.948,1.946s1.948-0.873,1.948-1.946C125.674,254.883,124.799,254.009,123.726,254.009z"/>
		</g>
		<g>
			<path fill="#3A3F51" d="M99.209,377.199c-1.485,0-2.693-1.208-2.693-2.692c0-1.486,1.209-2.695,2.693-2.695
				c1.486,0,2.695,1.21,2.695,2.695S100.695,377.199,99.209,377.199z M99.209,372.559c-1.073,0-1.948,0.872-1.948,1.948
				c0,1.073,0.875,1.947,1.948,1.947c1.075,0,1.948-0.874,1.948-1.947C101.157,373.431,100.284,372.559,99.209,372.559z"/>
		</g>
		<g>
			<path fill="#3A3F51" d="M23.859,268.117c-1.847,0-3.348-1.503-3.348-3.349s1.501-3.349,3.348-3.349
				c1.845,0,3.347,1.502,3.347,3.349C27.206,266.613,25.705,268.117,23.859,268.117z M23.859,262.347
				c-1.334,0-2.421,1.085-2.421,2.422c0,1.334,1.086,2.419,2.421,2.419c1.335,0,2.421-1.085,2.421-2.419
				C26.28,263.432,25.195,262.347,23.859,262.347z"/>
		</g>
		<g>
			<path fill="#3A3F51" d="M339.252,161.843c-1.846,0-3.348-1.502-3.348-3.348c0-1.846,1.501-3.348,3.348-3.348
				c1.845,0,3.346,1.501,3.346,3.348C342.598,160.341,341.097,161.843,339.252,161.843z M339.252,156.075
				c-1.335,0-2.422,1.087-2.422,2.421s1.087,2.42,2.422,2.42c1.334,0,2.421-1.086,2.421-2.42
				C341.672,157.161,340.586,156.075,339.252,156.075z"/>
		</g>
		<g>
			<path fill="#3A3F51" d="M347.741,260.468c-1.847,0-3.349-1.501-3.349-3.347s1.5-3.349,3.349-3.349
				c1.844,0,3.347,1.501,3.347,3.349C351.088,258.967,349.586,260.468,347.741,260.468z M347.741,254.7
				c-1.335,0-2.422,1.087-2.422,2.421s1.087,2.422,2.422,2.422s2.421-1.088,2.421-2.422
				C350.162,255.785,349.076,254.7,347.741,254.7z"/>
		</g>
		<path fill="#3A3F51" d="M135.146,222.979h-2.325v-2.324c0-0.351-0.285-0.633-0.633-0.633c-0.351,0-0.634,0.284-0.634,0.633v2.324
			h-2.325c-0.351,0-0.633,0.286-0.633,0.634c0,0.351,0.282,0.634,0.633,0.634h2.325v2.324c0,0.352,0.284,0.635,0.634,0.635
			c0.35,0,0.633-0.283,0.633-0.635v-2.324h2.325c0.35,0,0.633-0.284,0.633-0.634C135.781,223.265,135.496,222.979,135.146,222.979z"
			/>
		<path fill="#3A3F51" d="M194.617,132.19h-2.325v-2.325c0-0.35-0.285-0.634-0.634-0.634c-0.351,0-0.633,0.284-0.633,0.634v2.325
			h-2.326c-0.35,0-0.633,0.283-0.633,0.633c0,0.35,0.285,0.633,0.633,0.633h2.326v2.326c0,0.351,0.284,0.634,0.633,0.634
			c0.35,0,0.634-0.283,0.634-0.634v-2.326h2.325c0.351,0,0.633-0.283,0.633-0.633C195.25,132.473,194.966,132.19,194.617,132.19z"/>
		<path fill="#3A3F51" d="M91.417,188.726h-2.326v-2.325c0-0.35-0.282-0.633-0.633-0.633c-0.35,0-0.632,0.284-0.632,0.633v2.325
			H85.5c-0.35,0-0.633,0.285-0.633,0.634c0,0.351,0.285,0.633,0.633,0.633h2.326v2.326c0,0.35,0.284,0.635,0.632,0.635
			c0.352,0,0.633-0.285,0.633-0.635v-2.326h2.326c0.351,0,0.634-0.282,0.634-0.633C92.052,189.011,91.768,188.726,91.417,188.726z"
			/>
		<path fill="#3A3F51" d="M296.511,154.101h-2.325v-2.325c0-0.35-0.284-0.633-0.635-0.633c-0.352,0-0.634,0.284-0.634,0.633v2.325
			h-2.325c-0.35,0-0.635,0.285-0.635,0.633c0,0.351,0.285,0.634,0.635,0.634h2.325v2.326c0,0.35,0.282,0.633,0.634,0.633
			c0.351,0,0.635-0.284,0.635-0.633v-2.326h2.325c0.35,0,0.632-0.283,0.632-0.634C297.142,154.385,296.86,154.101,296.511,154.101z"
			/>
		<path fill="#3A3F51" d="M413.715,204.033h-2.325v-2.326c0-0.35-0.284-0.633-0.634-0.633s-0.635,0.284-0.635,0.633v2.326h-2.324
			c-0.349,0-0.635,0.284-0.635,0.634c0,0.351,0.286,0.634,0.635,0.634h2.324v2.326c0,0.35,0.285,0.635,0.635,0.635
			s0.634-0.285,0.634-0.635v-2.326h2.325c0.35,0,0.634-0.284,0.634-0.634C414.348,204.317,414.064,204.033,413.715,204.033z"/>
		<path fill="#3A3F51" d="M41.127,278.168H38.8v-2.324c0-0.352-0.283-0.635-0.632-0.635c-0.351,0-0.635,0.283-0.635,0.635v2.324
			h-2.324c-0.35,0-0.634,0.285-0.634,0.634c0,0.351,0.284,0.634,0.634,0.634h2.324v2.326c0,0.35,0.284,0.634,0.635,0.634
			c0.351,0,0.632-0.284,0.632-0.634v-2.326h2.327c0.35,0,0.632-0.283,0.632-0.634C41.76,278.453,41.477,278.168,41.127,278.168z"/>
		<path fill="#3A3F51" d="M85.502,310.203h-2.326v-2.325c0-0.349-0.282-0.634-0.632-0.634c-0.35,0-0.634,0.285-0.634,0.634v2.325
			h-2.325c-0.35,0-0.633,0.284-0.633,0.634c0,0.351,0.285,0.635,0.633,0.635h2.325v2.325c0,0.352,0.285,0.635,0.634,0.635
			c0.35,0,0.632-0.283,0.632-0.635v-2.325h2.326c0.351,0,0.634-0.284,0.634-0.635C86.136,310.487,85.852,310.203,85.502,310.203z"/>
		<path fill="#3A3F51" d="M342.23,317.677h-2.324v-2.326c0-0.351-0.283-0.633-0.634-0.633s-0.636,0.282-0.636,0.633v2.326h-2.324
			c-0.35,0-0.634,0.284-0.634,0.633c0,0.351,0.284,0.635,0.634,0.635h2.324v2.326c0,0.35,0.285,0.635,0.636,0.635
			s0.634-0.285,0.634-0.635v-2.326h2.324c0.35,0,0.635-0.284,0.635-0.635C342.863,317.961,342.58,317.677,342.23,317.677z"/>
		<path fill="#3A3F51" d="M444.737,311.807h-2.324v-2.326c0-0.35-0.285-0.632-0.635-0.632s-0.635,0.282-0.635,0.632v2.326h-2.323
			c-0.351,0-0.636,0.284-0.636,0.634c0,0.351,0.285,0.634,0.636,0.634h2.323v2.325c0,0.351,0.285,0.635,0.635,0.635
			s0.635-0.284,0.635-0.635v-2.325h2.324c0.35,0,0.635-0.283,0.635-0.634C445.372,312.091,445.089,311.807,444.737,311.807z"/>
	</g>
	<g>
		<polygon fill="#143359" points="373.252,313.479 373.252,302.947 381.678,308.212 		"/>
		<polygon fill="#143359" points="188.743,202.367 178.212,202.367 183.478,193.942 		"/>
		<polygon fill="#143359" points="113.182,279.521 102.65,279.521 107.916,271.096 		"/>
		<polygon fill="#143359" points="121.559,345.727 121.559,356.26 113.133,350.991 		"/>
		<polygon fill="#143359" points="271.041,230.779 260.51,230.779 265.775,222.354 		"/>
		<polygon fill="#143359" points="230.382,167.586 219.85,167.586 225.115,159.163 		"/>
		<polygon fill="#143359" points="324.755,356.586 324.755,346.055 333.18,351.32 		"/>
		<polygon fill="#143359" points="329.49,220.403 329.49,209.872 337.917,215.137 		"/>
	</g>
	<g>
		<path fill="#3A3F51" d="M136.45,271.145c1.083,0,1.96,0.876,1.96,1.959s-0.878,1.961-1.96,1.961c-1.083,0-1.961-0.878-1.961-1.961
			C134.49,272.021,135.368,271.145,136.45,271.145z M125.183,274.083c0.542,0,0.981-0.437,0.981-0.979
			c0-5.672,4.614-10.287,10.286-10.287c0.542,0,0.979-0.438,0.979-0.98c0-0.541-0.438-0.979-0.979-0.979
			c-6.752,0-12.247,5.494-12.247,12.244C124.204,273.646,124.644,274.083,125.183,274.083z M128.857,274.083
			c0.541,0,0.98-0.437,0.98-0.979c0-3.646,2.965-6.613,6.613-6.613c0.542,0,0.979-0.438,0.979-0.979s-0.437-0.979-0.979-0.979
			c-4.726,0-8.572,3.845-8.572,8.572C127.878,273.646,128.317,274.083,128.857,274.083z M132.042,274.083
			c0.541,0,0.979-0.437,0.979-0.979c0-1.889,1.538-3.429,3.429-3.429c0.542,0,0.979-0.438,0.979-0.979
			c0-0.542-0.437-0.98-0.979-0.98c-2.972,0-5.388,2.418-5.388,5.389C131.062,273.646,131.501,274.083,132.042,274.083z"/>
		<path fill="#3A3F51" d="M372.811,126.389c0,1.083-0.877,1.96-1.959,1.96s-1.961-0.877-1.961-1.96s0.879-1.959,1.961-1.959
			S372.811,125.307,372.811,126.389z M383.098,126.389c0-6.752-5.492-12.246-12.246-12.246c-0.541,0-0.98,0.438-0.98,0.98
			c0,0.542,0.439,0.98,0.98,0.98c5.672,0,10.287,4.614,10.287,10.286c0,0.542,0.439,0.98,0.98,0.98S383.098,126.931,383.098,126.389
			z M379.425,126.389c0-4.727-3.847-8.572-8.573-8.572c-0.542,0-0.981,0.438-0.981,0.979c0,0.542,0.439,0.98,0.981,0.98
			c3.646,0,6.612,2.966,6.612,6.612c0,0.542,0.438,0.98,0.979,0.98C378.983,127.369,379.425,126.931,379.425,126.389z
			 M376.239,126.389c0-2.971-2.417-5.388-5.388-5.388c-0.542,0-0.981,0.438-0.981,0.98s0.439,0.98,0.981,0.98
			c1.889,0,3.43,1.539,3.43,3.428c0,0.542,0.438,0.98,0.979,0.98C375.801,127.369,376.239,126.931,376.239,126.389z"/>
	</g>
	<g>
		<path fill="#153258" d="M398.566,361.231v3.662c0,0.071,0.02,0.141,0.053,0.2c0.526,2.186,5.243,3.815,11.105,3.815
			c5.85,0,10.559-1.624,11.102-3.8c0.037-0.064,0.057-0.138,0.057-0.216v-3.661c-1.844,1.3-5.648,2.321-11.158,2.321
			S400.412,362.531,398.566,361.231z"/>
		<path fill="#153258" d="M422.222,364.426c0,0.087-0.022,0.169-0.06,0.241c-0.063,0.262-0.18,0.517-0.339,0.763
			c1.921-0.676,3.198-1.611,3.466-2.682c0.037-0.064,0.057-0.139,0.057-0.217v-3.659l-3.124,1.468V364.426L422.222,364.426z"/>
		<path fill="#153258" d="M410.887,358.18c-0.388,0.013-0.775,0.02-1.162,0.02c-0.389,0-0.777-0.007-1.167-0.02
			c-3.277-0.09-5.888-0.554-7.768-1.214c-0.884-0.297-1.64-0.647-2.225-1.049v3.175v0.223v0.223v0.576
			c1.271,1.325,5.532,2.55,11.159,2.55c5.625,0,9.887-1.224,11.158-2.55v-0.576v-0.223v-0.223v-3.175
			c-0.59,0.404-1.353,0.757-2.244,1.057C416.761,357.631,414.156,358.09,410.887,358.18z"/>
		<path fill="#153258" d="M421.774,355.072v3.781v0.239v0.237v0.094c1.729-0.46,2.979-1.055,3.571-1.673v-0.574v-0.224v-0.223
			v-3.175c-0.588,0.404-1.352,0.758-2.243,1.056L421.774,355.072z"/>
		<path fill="#153258" d="M398.566,350.601v3.174v0.223v0.225v0.574c1.178,1.229,4.925,2.371,9.947,2.53
			c0.051,0.002,0.104,0.003,0.156,0.004c0.146,0.004,0.289,0.007,0.438,0.011c0.204,0.003,0.41,0.005,0.617,0.005
			c0.209,0,0.414-0.002,0.617-0.005c0.148-0.004,0.293-0.007,0.439-0.011c0.051-0.001,0.104-0.002,0.155-0.004
			c5.022-0.159,8.77-1.302,9.946-2.53v-0.574v-0.225v-0.223v-3.174c-2.172,1.492-6.765,2.281-11.158,2.281
			C405.332,352.882,400.738,352.093,398.566,350.601z"/>
		<path fill="#153258" d="M409.725,344.491c-6.73,0-10.576,1.884-11.093,3.799c-0.038,0.066-0.066,0.138-0.066,0.219v0.223v0.807
			c1.267,1.321,5.497,2.541,11.159,2.541c5.66,0,9.892-1.22,11.158-2.541v-0.807v-0.223c0-0.074-0.025-0.143-0.062-0.204
			C420.321,346.384,416.471,344.491,409.725,344.491z"/>
		<path fill="#153258" d="M421.774,353.065v0.268v0.268v0.511c1.732-0.462,2.978-1.057,3.571-1.675v-0.576v-0.223v-0.224v-3.174
			c-0.862,0.592-2.11,1.071-3.571,1.438V353.065z"/>
		<path fill="#153258" d="M425.285,345.942c-0.501-1.92-4.352-3.813-11.098-3.813c-4.52,0-7.732,0.852-9.516,1.989
			c1.553-0.326,3.387-0.521,5.498-0.521c7.016,0,11.021,2.115,11.542,4.261c0.036,0.068,0.063,0.146,0.063,0.229v0.249v0.51
			c1.732-0.459,2.979-1.052,3.571-1.67v-0.806v-0.224C425.346,346.071,425.32,346.005,425.285,345.942z"/>
	</g>
	<g>
		<path id="App_Store" fill="#153258" d="M23.752,350.931v-5.737c0-0.525,0.431-0.955,0.961-0.955H34.85l-4.414,7.647h-5.723
			C24.184,351.886,23.752,351.459,23.752,350.931z M30.973,362.677l-3.235,2.192c-0.435,0.295-0.742,0.108-0.682-0.415l0.432-3.749
			c0.06-0.522,0.484-0.736,0.941-0.475l2.505,1.431C31.39,361.923,31.408,362.382,30.973,362.677z M31.75,360.563l-2.504-1.431
			c-0.458-0.262-0.618-0.849-0.353-1.305l11.595-20.097c0.263-0.458,0.855-0.616,1.313-0.352l2.504,1.428
			c0.458,0.265,0.615,0.851,0.353,1.306l-11.593,20.099C32.801,360.669,32.208,360.824,31.75,360.563z M40.574,351.886l4.414-7.647
			h2.541l3.584,7.647H40.574z M54.948,354.169c-1.002-0.5-5.995-11.967-7.273-14.957c-1.279-2.992-5.146-10.955-3.896-11.574
			c0.89-0.445,4.083,5.826,6.477,9.591c2.391,3.764,7.391,13.472,8.005,14.577c0.612,1.108-0.589,2.032-1.256,2.31
			C56.337,354.39,55.95,354.666,54.948,354.169z M58.228,359.439l-1.509-2.373c-0.313-0.492-0.15-1.102,0.356-1.361l1.438-0.736
			c0.508-0.258,1.142-0.049,1.411,0.467l1.19,2.278c0.271,0.515,0.086,1.177-0.402,1.468l-1.028,0.611
			C59.197,360.09,58.54,359.928,58.228,359.439z M63.779,365.661c-0.314-1.006-2.721-1.071-3.798-2.585
			c-1.081-1.509-0.188-2.286,0.188-2.644C64.537,357.982,63.779,365.661,63.779,365.661z M66.027,350.931
			c0,0.528-0.431,0.955-0.961,0.955h-5.075c-0.055-0.294-0.147-0.589-0.299-0.866c-0.131-0.236-0.466-0.87-0.931-1.756
			c-0.672-1.276-1.637-3.103-2.669-5.026h8.974c0.529,0,0.961,0.429,0.961,0.955V350.931L66.027,350.931L66.027,350.931z"/>
	</g>
	<g>
		<g>
			<g>
				<path fill="#153258" d="M48.891,206.858h-8.038c-6.605,0-11.987,5.382-11.987,11.987h32.047
					C60.878,212.275,55.496,206.858,48.891,206.858z"/>
				<path fill="#153258" d="M46.305,201.372c0.629,0,1.223,0.209,1.677,0.594h2.9c1.434-1.502,2.308-3.495,2.308-5.731
					c0-4.613-3.739-8.318-8.317-8.318c-4.578,0-8.317,3.705-8.317,8.318c0,3.11,1.712,5.836,4.264,7.268
					c0.279-1.222,1.363-2.132,2.621-2.132h2.864V201.372z"/>
				<path fill="#153258" d="M32.571,196.934c0.104,0.875,0.523,1.677,1.119,2.271c0.454,0.454,1.048,0.804,1.711,1.014
					c-0.035-0.14-0.035-0.281-0.035-0.384v-6.78c0-0.14,0-0.279,0.035-0.42c-0.665,0.175-1.222,0.524-1.711,1.013
					c-0.036,0.035-0.106,0.105-0.14,0.14v-0.279c0-0.665,0.069-1.329,0.175-1.957c0.104-0.664,0.279-1.293,0.523-1.887
					c0.21-0.629,0.489-1.223,0.839-1.782c0.314-0.559,0.698-1.119,1.119-1.608c0.035-0.035,0.069-0.104,0.069-0.14
					c0.315,0.035,0.629-0.069,0.839-0.279c2.133-2.133,4.928-3.18,7.688-3.18s5.592,1.048,7.688,3.18
					c0.244,0.244,0.559,0.314,0.839,0.279c0.036,0.035,0.036,0.104,0.069,0.14c0.42,0.489,0.804,1.048,1.119,1.608
					c0.315,0.559,0.594,1.154,0.839,1.782c0.209,0.629,0.384,1.258,0.525,1.922c0.105,0.629,0.175,1.292,0.175,1.957v0.279
					c-0.034-0.069-0.104-0.104-0.14-0.14c-0.455-0.455-1.048-0.803-1.713-1.013c0.035,0.14,0.035,0.279,0.035,0.42v6.745
					c0,0.14,0,0.28-0.035,0.384c0.175-0.035,0.35-0.106,0.525-0.175v2.202c0,0.244-0.035,0.488-0.069,0.665
					c-0.034,0.176-0.105,0.279-0.175,0.384c-0.07,0.069-0.175,0.14-0.28,0.175c-0.14,0.034-0.279,0.069-0.454,0.069h-0.035h-6.43
					c-0.209-0.35-0.559-0.594-1.013-0.594h-2.867c-0.629,0-1.117,0.524-1.117,1.119c0.035,0.629,0.524,1.117,1.152,1.117h2.867
					c0.42,0,0.804-0.244,1.013-0.594h6.5h0.244c0.246,0,0.455-0.07,0.665-0.14c0.279-0.105,0.488-0.244,0.698-0.455
					c0.175-0.209,0.315-0.454,0.42-0.769c0.069-0.279,0.14-0.629,0.14-1.013v-2.796v-0.104c0.035-0.035,0.069-0.07,0.104-0.105
					c0.595-0.594,1.014-1.398,1.119-2.271c0.035-0.035,0.069-0.035,0.069-0.069c0.105-0.104,0.175-0.279,0.175-0.419v-2.9
					c0-0.734-0.069-1.467-0.175-2.167c-0.209-0.733-0.384-1.433-0.628-2.133c-0.246-0.698-0.56-1.363-0.944-1.992
					c-0.35-0.628-0.769-1.222-1.258-1.782c-0.035-0.071-0.104-0.106-0.175-0.14c0.07-0.314-0.035-0.698-0.28-0.943
					c-2.515-2.517-5.801-3.775-9.12-3.775c-3.321,0-6.605,1.258-9.156,3.775c-0.245,0.244-0.35,0.629-0.281,0.943
					c-0.069,0.036-0.104,0.069-0.175,0.14c-0.489,0.559-0.908,1.153-1.258,1.782c-0.35,0.629-0.664,1.293-0.943,1.992
					c-0.245,0.7-0.455,1.398-0.559,2.133c-0.14,0.698-0.175,1.433-0.175,2.167v2.9c0,0.175,0.069,0.314,0.175,0.419
					C32.537,196.898,32.571,196.898,32.571,196.934z"/>
			</g>
		</g>
	</g>
	<path fill="#153258" d="M106.247,110.69h24.847c0.617,0,1.156-0.406,1.322-0.998l5.501-19.255c0.119-0.416,0.038-0.861-0.224-1.206
		c-0.26-0.343-0.666-0.547-1.098-0.547h-33.523l-0.983-4.424c-0.141-0.63-0.7-1.077-1.344-1.077h-8.344
		c-0.759,0-1.375,0.616-1.375,1.376s0.616,1.375,1.375,1.375h7.241l4.966,22.35c-1.461,0.634-2.487,2.089-2.487,3.782
		c0,2.274,1.85,4.126,4.126,4.126h24.847c0.761,0,1.376-0.615,1.376-1.376c0-0.758-0.615-1.373-1.376-1.373h-24.847
		c-0.758,0-1.377-0.618-1.377-1.377S105.489,110.69,106.247,110.69z"/>
	<path fill="#153258" d="M104.87,120.318c0,2.274,1.853,4.126,4.129,4.126c2.273,0,4.125-1.85,4.125-4.126
		c0-2.275-1.852-4.126-4.125-4.126C106.723,116.192,104.87,118.043,104.87,120.318z"/>
	<path fill="#153258" d="M124.218,120.318c0,2.274,1.851,4.126,4.126,4.126c2.276,0,4.126-1.85,4.126-4.126
		c0-2.275-1.85-4.126-4.126-4.126C126.069,116.192,124.218,118.043,124.218,120.318z"/>
	<g>
		<path id="Facebook_Places" fill="#153258" d="M233.115,95.622c-0.098-0.364-0.295-0.751-0.439-1.09
			c-1.744-4.193-5.557-5.696-8.636-5.696c-4.119,0-8.657,2.763-9.264,8.458v1.163c0,0.048,0.017,0.485,0.041,0.703
			c0.339,2.714,2.481,5.598,4.08,8.312c1.72,2.908,3.506,5.768,5.275,8.627c1.091-1.866,2.178-3.756,3.245-5.574
			c0.289-0.533,0.627-1.066,0.918-1.576c0.193-0.339,0.563-0.678,0.732-0.994c1.722-3.151,4.491-6.325,4.491-9.451v-1.285
			C233.559,96.882,233.14,95.695,233.115,95.622z M224.117,101.462c-1.211,0-2.538-0.606-3.192-2.279
			c-0.097-0.266-0.089-0.8-0.089-0.849v-0.75c0-2.133,1.811-3.102,3.386-3.102c1.938,0,3.438,1.551,3.438,3.49
			C227.66,99.911,226.056,101.462,224.117,101.462z"/>
	</g>
	<g>
		<g>
			<path fill="#153258" d="M393.575,267.107l-15.907-8.676v-4.806L393.575,245v5.644l-11.085,5.325l11.085,5.525V267.107z"/>
			<path fill="#153258" d="M396.292,270.145l10.551-28.182h3.332l-10.573,28.182H396.292z"/>
			<path fill="#153258" d="M413.744,267.107v-5.613l11.083-5.48l-11.083-5.438V245l15.905,8.637v4.776L413.744,267.107z"/>
		</g>
	</g>
	<g id="layer7" transform="translate(-273.27313,-435.95455)">
		<path id="path3993" fill="#153258" d="M471.451,787.144v12.2h3.113v-3.178l2.831,2.833h4.776l-3.788-3.789
			c0,0,2.725-0.043,2.93-3.983c0-3.615-2.728-4.083-5.877-4.083H471.451z M474.712,790.453h2.684v2.175h-2.684V790.453z"/>
		<path id="path3997" fill="#153258" d="M488.181,787.193c-1.704-0.01-4.067,0.148-4.067,3.358v8.479h3.195v-2.073h3.096v2.025h3.21
			v-8.893c0-2.789-3.099-2.898-4.759-2.898C488.649,787.193,488.425,787.194,488.181,787.193z M487.358,790.255h2.998v3.343h-2.998
			V790.255z"/>
		<rect id="rect4001" x="496.815" y="787.201" fill="#153258" width="3.306" height="11.673"/>
		<path id="path4003" fill="#153258" d="M503.582,787.357v11.672h7.953v-3.099h-4.699v-8.625L503.582,787.357z"/>
		<path id="path4005" fill="#153258" d="M522.07,787.252v3.151h-5.318v1.135c0,0,1.086,0,2.273,0c1.186,0,3.666-0.051,3.666,3.668
			c0,3.716-1.706,3.926-5.165,3.926c-3.46,0-4.184,0-4.184,0v-2.844c0,0,3.356,0,4.804,0c1.445,0,1.525-0.469,1.525-0.881
			c0-0.409-0.739-0.6-2.242-0.6c-1.506,0-4.293-0.738-4.293-3.631c0-2.892,1.445-3.977,4.338-3.977
			C520.367,787.2,522.07,787.252,522.07,787.252L522.07,787.252z"/>
	</g>
	<g id="layer6" transform="translate(-273.27313,-435.95455)">
		<path id="path3966" fill="#153258" d="M474.348,783.689h27.477c0,0-6.094-13.842-4.546-26.547
			c1.551-12.703,11.57-18.489,17.252-19.109c5.68-0.619,8.777,2.893,8.777,2.893l1.24-1.859c0,0-8.159-8.265-18.489-7.334
			c-10.33,0.929-17.457,7.747-21.898,16.01c-4.442,8.265-7.024,14.049-8.78,22.727C473.627,779.144,474.348,783.689,474.348,783.689
			z"/>
		<path id="path3968" fill="#153258" d="M468.875,769.847l5.373,0.414l-0.93,5.371l-5.062-0.62L468.875,769.847z"/>
		<path id="path3970" fill="#153258" d="M477.345,758.486l1.446-4.027l-4.751-1.86l-1.549,4.338L477.345,758.486z"/>
		<path id="path3972" fill="#153258" d="M484.058,744.644l2.79-3.306l-3.615-2.377l-2.893,3.204L484.058,744.644z"/>
		<path id="path3974" fill="#153258" d="M491.392,731.836l2.479,2.995l3.408-1.963l-2.479-2.787L491.392,731.836z"/>
		<path id="path3976" fill="#153258" d="M503.478,728.427l0.619,2.996l4.236-0.104l-0.414-2.685L503.478,728.427z"/>
		<path id="path3978" fill="#153258" d="M517.836,731.629l-0.104,1.858l2.893,1.55l0.619-0.929L517.836,731.629z"/>
		<path id="path3980" fill="#153258" d="M517.216,739.583v1.549l2.79,0.31v-1.239L517.216,739.583z"/>
		<path id="path3982" fill="#153258" d="M508.334,740.926l1.343,2.478l1.964-1.549l-0.414-1.652L508.334,740.926z"/>
		<path id="path3984" fill="#153258" d="M504.096,744.128l2.066,3.099l-1.239,2.169l-2.996-3.306L504.096,744.128z"/>
		<path id="path3986" fill="#153258" d="M499.966,752.702l-1.344,2.687l3.512,2.996l0.826-3.409L499.966,752.702z"/>
		<path id="path3988" fill="#153258" d="M498.52,762.101l-0.207,3.615l4.338,1.86l-0.207-3.409L498.52,762.101z"/>
		<path id="path3990" fill="#153258" d="M499.759,774.91l1.033,3.72l5.475,0.309l-1.962-4.028H499.759L499.759,774.91z"/>
	</g>
</g>
<path fill="#153258" d="M441.778,399.875c0,1.731-0.977,3.136-2.182,3.136H11.071c-1.205,0-2.182-1.404-2.182-3.136l0,0
	c0-1.731,0.977-3.136,2.182-3.136h428.525C440.802,396.739,441.778,398.144,441.778,399.875L441.778,399.875z"/>
</svg>
